<?xml version="1.0" encoding="utf-8"?>
<!-- Generator: Adobe Illustrator 16.0.0, SVG Export Plug-In . SVG Version: 6.00 Build 0)  -->
<!DOCTYPE svg PUBLIC "-//W3C//DTD SVG 1.1//EN" "http://www.w3.org/Graphics/SVG/1.1/DTD/svg11.dtd">
<svg version="1.1" id="Layer_1" xmlns="http://www.w3.org/2000/svg" xmlns:xlink="http://www.w3.org/1999/xlink" x="0px" y="0px"
	 width="150px" height="50px" viewBox="0 0 150 50" enable-background="new 0 0 150 50" xml:space="preserve">
<g>
	<path d="M0.437,1.126h6.967c4.404,0,6.566,2.442,6.566,6.927v14.174c0,4.484-2.162,6.927-6.566,6.927H0.437V1.126z M4.841,5.13
		v20.02h2.482c1.401,0,2.242-0.721,2.242-2.723V7.853c0-2.002-0.841-2.723-2.242-2.723H4.841z"/>
	<path d="M21.177,12.938h6.046v4.004h-6.046v8.208h7.607v4.004H16.773V1.126h12.012V5.13h-7.607V12.938z"/>
	<path d="M38.154,23.988l3.363-22.862h4.044l-4.324,28.027h-6.566L30.347,1.126h4.444L38.154,23.988z"/>
	<path d="M47.604,1.126h4.404v28.027h-4.404V1.126z"/>
	<path d="M59.134,8.854v20.3H55.17V1.126h5.525l4.524,16.776V1.126h3.924v28.027H64.62L59.134,8.854z"/>
</g>
<g>
	<path fill="#00B2B1" d="M84.674,8.053v3.644c0,4.484-2.162,6.927-6.566,6.927h-2.082v10.53h-4.405V1.126h6.487
		C82.512,1.126,84.674,3.568,84.674,8.053z M76.025,5.13v9.489h2.082c1.4,0,2.162-0.641,2.162-2.643V7.772
		c0-2.002-0.762-2.643-2.162-2.643H76.025z"/>
	<path fill="#00B2B1" d="M86.716,1.126h4.404v28.027h-4.404V1.126z"/>
	<path fill="#00B2B1" d="M98.247,8.854v20.3h-3.964V1.126h5.525l4.524,16.776V1.126h3.924v28.027h-4.524L98.247,8.854z"/>
	<path fill="#00B2B1" d="M115.823,12.938h6.046v4.004h-6.046v8.208h7.607v4.004h-12.012V1.126h12.012V5.13h-7.607V12.938z"/>
	<path fill="#00B2B1" d="M135.363,29.153c-0.24-0.721-0.4-1.161-0.4-3.443v-4.404c0-2.603-0.881-3.563-2.883-3.563h-1.521v11.411
		h-4.404V1.126h6.646c4.564,0,6.526,2.122,6.526,6.446v2.202c0,2.883-0.921,4.765-2.883,5.686c2.202,0.921,2.923,3.043,2.923,5.966
		v4.324c0,1.361,0.04,2.362,0.48,3.403H135.363z M130.559,5.13v8.608h1.722c1.642,0,2.643-0.721,2.643-2.963V8.013
		c0-2.002-0.681-2.883-2.242-2.883H130.559z"/>
</g>
<g>
	<path fill="#ABABAB" d="M10.651,32.072h0.803L8.955,43.819H7.999l-1.792-8.79c-0.032-0.146-0.126-0.785-0.281-1.921l-0.112,0.764
		l-0.185,1.141l-1.76,8.807H2.937L0.414,32.072h0.828l1.655,8.091c0.257,1.318,0.423,2.239,0.499,2.765
		c0.118-0.857,0.271-1.768,0.458-2.732L5.5,32.072h0.892l1.639,8.091c0.171,0.879,0.294,1.602,0.37,2.17l0.08,0.595
		c0.156-1.131,0.308-2.052,0.458-2.765L10.651,32.072z"/>
	<path fill="#ABABAB" d="M17.087,43.819h-4.259V32.072h4.259v0.755h-3.471v4.46h3.278v0.755h-3.278v5.022h3.471V43.819z"/>
	<path fill="#ABABAB" d="M19.16,32.072h2.25c0.921,0,1.629,0.235,2.125,0.707c0.496,0.471,0.743,1.168,0.743,2.089
		c0,1.591-0.581,2.502-1.743,2.732v0.063c0.669,0.14,1.167,0.438,1.494,0.896s0.49,1.097,0.49,1.916c0,1.05-0.233,1.87-0.699,2.459
		c-0.466,0.589-1.12,0.884-1.96,0.884h-2.7V32.072z M19.948,37.303h1.479c0.733,0,1.257-0.202,1.571-0.606s0.47-1.02,0.47-1.844
		c0-0.665-0.172-1.174-0.518-1.527s-0.858-0.53-1.539-0.53h-1.462V37.303z M19.948,38.026v5.069h1.808
		c1.296,0,1.945-0.878,1.945-2.635c0-0.782-0.19-1.384-0.571-1.805c-0.38-0.42-0.913-0.63-1.599-0.63H19.948z"/>
	<path fill="#ABABAB" d="M35.367,37.833c0,3.991-1.246,5.986-3.736,5.986h-2.089V32.072h2.137c1.21,0,2.128,0.488,2.752,1.466
		S35.367,35.947,35.367,37.833z M34.54,37.881c0-1.654-0.244-2.916-0.731-3.784s-1.208-1.302-2.162-1.302h-1.317v10.301h1.253
		c1.018,0,1.765-0.444,2.242-1.333C34.301,40.873,34.54,39.579,34.54,37.881z"/>
	<path fill="#ABABAB" d="M41.795,43.819h-4.259V32.072h4.259v0.755h-3.471v4.46h3.278v0.755h-3.278v5.022h3.471V43.819z"/>
	<path fill="#ABABAB" d="M48.376,40.742c0,0.964-0.268,1.745-0.804,2.342c-0.536,0.598-1.216,0.896-2.041,0.896
		c-0.938,0-1.69-0.137-2.258-0.41v-0.852c0.279,0.155,0.624,0.278,1.037,0.369c0.413,0.092,0.82,0.137,1.221,0.137
		c0.6,0,1.093-0.228,1.479-0.683s0.579-1.034,0.579-1.736c0-0.647-0.137-1.162-0.41-1.542c-0.273-0.381-0.795-0.761-1.567-1.142
		c-0.605-0.305-1.058-0.601-1.358-0.888c-0.3-0.286-0.522-0.62-0.667-1c-0.145-0.381-0.217-0.836-0.217-1.366
		c0-0.578,0.118-1.093,0.354-1.543c0.235-0.45,0.565-0.8,0.988-1.049c0.423-0.249,0.886-0.373,1.39-0.373
		c0.455,0,0.869,0.051,1.241,0.152c0.373,0.102,0.666,0.212,0.88,0.33l-0.305,0.755c-0.595-0.306-1.2-0.458-1.816-0.458
		c-0.579,0-1.049,0.197-1.41,0.591c-0.362,0.394-0.542,0.914-0.542,1.563c0,0.659,0.131,1.171,0.394,1.535
		c0.263,0.364,0.777,0.741,1.543,1.133c0.792,0.386,1.373,0.837,1.74,1.354C48.192,39.375,48.376,40.003,48.376,40.742z"/>
	<path fill="#ABABAB" d="M50.369,43.819V32.072h0.788v11.747H50.369z"/>
	<path fill="#ABABAB" d="M57.592,37.897h2.571v5.561c-0.895,0.348-1.824,0.522-2.788,0.522c-1.28,0-2.274-0.536-2.981-1.607
		s-1.061-2.558-1.061-4.46c0-1.906,0.365-3.385,1.097-4.435c0.731-1.051,1.758-1.575,3.082-1.575c0.889,0,1.728,0.252,2.515,0.755
		l-0.378,0.691c-0.739-0.472-1.452-0.707-2.137-0.707c-1.098,0-1.93,0.451-2.495,1.354c-0.565,0.903-0.848,2.214-0.848,3.934
		c0,1.682,0.285,2.985,0.856,3.909c0.57,0.924,1.378,1.386,2.422,1.386c0.75,0,1.39-0.099,1.92-0.297v-4.275h-1.776V37.897z"/>
	<path fill="#ABABAB" d="M68.552,43.819h-1.004l-4.443-10.534H63.04c0.064,0.729,0.097,1.431,0.097,2.105v8.429h-0.771V32.072h1.021
		l4.411,10.413h0.048c-0.043-0.878-0.064-1.612-0.064-2.201v-8.212h0.771V43.819z"/>
	<path fill="#ABABAB" d="M75.631,40.742c0,0.964-0.268,1.745-0.804,2.342c-0.536,0.598-1.216,0.896-2.041,0.896
		c-0.938,0-1.69-0.137-2.258-0.41v-0.852c0.279,0.155,0.624,0.278,1.037,0.369c0.413,0.092,0.82,0.137,1.221,0.137
		c0.6,0,1.093-0.228,1.479-0.683s0.579-1.034,0.579-1.736c0-0.647-0.137-1.162-0.41-1.542c-0.273-0.381-0.795-0.761-1.567-1.142
		c-0.605-0.305-1.058-0.601-1.358-0.888c-0.3-0.286-0.522-0.62-0.667-1c-0.145-0.381-0.217-0.836-0.217-1.366
		c0-0.578,0.118-1.093,0.354-1.543c0.235-0.45,0.565-0.8,0.988-1.049c0.423-0.249,0.886-0.373,1.39-0.373
		c0.455,0,0.869,0.051,1.241,0.152c0.373,0.102,0.666,0.212,0.88,0.33l-0.305,0.755c-0.595-0.306-1.2-0.458-1.816-0.458
		c-0.579,0-1.049,0.197-1.41,0.591c-0.362,0.394-0.542,0.914-0.542,1.563c0,0.659,0.131,1.171,0.394,1.535
		c0.263,0.364,0.777,0.741,1.543,1.133c0.792,0.386,1.373,0.837,1.74,1.354C75.448,39.375,75.631,40.003,75.631,40.742z"/>
</g>
</svg>
