<?xml version="1.0" encoding="utf-8"?>
<!-- Generator: Adobe Illustrator 16.0.0, SVG Export Plug-In . SVG Version: 6.00 Build 0)  -->
<!DOCTYPE svg PUBLIC "-//W3C//DTD SVG 1.1//EN" "http://www.w3.org/Graphics/SVG/1.1/DTD/svg11.dtd">
<svg version="1.1" id="Layer_1" xmlns="http://www.w3.org/2000/svg" xmlns:xlink="http://www.w3.org/1999/xlink" x="0px" y="0px"
	 width="125px" height="125px" viewBox="0 0 125 125" enable-background="new 0 0 125 125" xml:space="preserve">
<g>
	<path fill="#00B2B1" d="M1.448,2.061h30.219c19.104,0,28.483,10.594,28.483,30.046v61.481c0,19.452-9.378,30.046-28.483,30.046
		H1.448V2.061z M20.552,19.429v86.838H31.32c6.079,0,9.726-3.127,9.726-11.811V31.238c0-8.684-3.647-11.81-9.726-11.81H20.552z"/>
</g>
<g>
	<path fill="#333333" d="M123.087,32.107v15.804c0,19.452-9.379,30.046-28.483,30.046h-9.03v45.677H66.469V2.061h28.135
		C113.708,2.061,123.087,12.655,123.087,32.107z M85.573,19.429v41.161h9.03c6.079,0,9.379-2.779,9.379-11.462V30.891
		c0-8.684-3.3-11.462-9.379-11.462H85.573z"/>
</g>
</svg>
